<svg width="159" height="46" viewBox="0 0 159 46" fill="none" xmlns="http://www.w3.org/2000/svg">
<path d="M101.339 26.1639V7.94437L105.317 7.93152V18.005H105.367L109.482 13.0196H114.144L109.544 18.6603L114.952 26.1639H109.991L105.317 19.7139V26.1639H101.339Z" fill="#3B9AA4"/>
<path d="M121.016 16.643C120.503 16.9428 120.092 17.3454 119.786 17.8508C119.479 18.3562 119.326 18.9087 119.326 19.5083C119.326 20.4163 119.657 21.2 120.32 21.8596C120.975 22.5106 121.75 22.8361 122.645 22.8361C123.548 22.8361 124.327 22.5106 124.982 21.8596C125.645 21.2 125.977 20.4163 125.977 19.5083C125.977 18.9087 125.823 18.3562 125.517 17.8508C125.21 17.3454 124.8 16.9428 124.286 16.643C123.78 16.3518 123.233 16.2061 122.645 16.2061C122.073 16.2061 121.53 16.3518 121.016 16.643ZM125.989 26.1639V25.7785C125.724 25.8984 125.529 25.9798 125.405 26.0226C124.526 26.3738 123.606 26.5494 122.645 26.5494C121.377 26.5494 120.179 26.2453 119.052 25.6371C117.925 25.0204 117.03 24.1809 116.367 23.1188C115.696 22.0395 115.36 20.836 115.36 19.5083C115.36 18.5061 115.555 17.5724 115.944 16.7072C116.334 15.8507 116.868 15.1054 117.548 14.4715C118.219 13.8377 118.998 13.3537 119.885 13.0196C120.772 12.6684 121.692 12.4928 122.645 12.4928C123.59 12.4928 124.51 12.6642 125.405 13.0068C126.3 13.3494 127.079 13.8377 127.742 14.4715C128.438 15.1226 128.977 15.8678 129.358 16.7072C129.748 17.5724 129.942 18.5061 129.942 19.5083L129.93 26.2025L125.989 26.1639Z" fill="#3B9AA4"/>
<path d="M139.14 12.5571V16.4374C138.933 16.2918 138.663 16.2104 138.332 16.1933H138.108C137.097 16.2361 136.591 16.9642 136.591 18.3776V26.1639H132.613V18.3776C132.613 14.6343 134.445 12.6684 138.108 12.48H138.332C138.605 12.4886 138.875 12.5143 139.14 12.5571Z" fill="#3B9AA4"/>
<path d="M149.096 26.5879C147.828 26.5879 146.63 26.2796 145.503 25.6628C144.376 25.0461 143.481 24.2024 142.818 23.1316C142.146 22.0523 141.811 20.8445 141.811 19.5083C141.811 18.5061 142.006 17.5724 142.395 16.7072C142.785 15.8421 143.319 15.0926 143.999 14.4587C144.687 13.8163 145.47 13.3237 146.348 12.9811C147.243 12.6385 148.159 12.4671 149.096 12.4671C150.041 12.4671 150.961 12.6385 151.856 12.9811C152.726 13.3066 153.509 13.7948 154.205 14.4459C154.893 15.0969 155.428 15.8507 155.809 16.7072C156.199 17.5724 156.393 18.5061 156.393 19.5083C156.393 20.5276 156.203 21.4613 155.821 22.3093C155.44 23.1659 154.901 23.924 154.205 24.5835C153.501 25.2345 152.718 25.7271 151.856 26.0611C150.985 26.4123 150.065 26.5879 149.096 26.5879ZM145.777 19.5083C145.777 20.4248 146.108 21.2129 146.771 21.8724C147.426 22.532 148.201 22.8618 149.096 22.8618C149.999 22.8618 150.778 22.532 151.433 21.8724C152.096 21.2129 152.428 20.4248 152.428 19.5083C152.428 18.9087 152.274 18.3562 151.968 17.8508C151.661 17.3454 151.251 16.9428 150.737 16.643C150.231 16.3432 149.684 16.1933 149.096 16.1933C148.524 16.1933 147.981 16.3432 147.467 16.643C146.953 16.9428 146.543 17.3454 146.237 17.8508C145.93 18.3562 145.777 18.9087 145.777 19.5083Z" fill="#3B9AA4"/>
<path d="M38.2693 42.456H40.6111C42.6737 42.456 43.9842 40.9144 43.9842 38.4225C43.9842 35.9307 42.6737 34.4126 40.6111 34.4126H38.2693V42.456ZM40.6112 35.3515C41.9648 35.3515 43.0497 36.2209 43.0497 38.4227C43.0497 40.5785 41.9862 41.5055 40.6112 41.5055H39.1719V35.3515H40.6112ZM45.1123 38.9093V42.456H46.0147V38.8864C46.0147 37.739 46.6915 37.1826 47.7551 37.287V36.3711C46.3048 36.1859 45.1123 37.1011 45.1123 38.9093ZM52.8364 40.6014C52.4818 41.2968 51.934 41.6681 51.1496 41.6681C50.5159 41.6681 49.9036 41.3316 49.5491 40.7294L53.7925 38.7939C53.4701 37.2403 52.299 36.3363 51.0961 36.3363C49.56 36.3363 48.3135 37.7507 48.3135 39.4776C48.3135 41.2273 49.5601 42.5952 51.1496 42.5952C52.4278 42.5952 53.3521 41.8767 53.7814 40.6015H52.8364V40.6014ZM49.2268 39.4657C49.2268 38.0983 50.2149 37.2639 51.0961 37.2639C51.7188 37.2639 52.3312 37.6694 52.6753 38.3183L49.259 39.8712C49.2378 39.7439 49.2268 39.6166 49.2268 39.4657ZM60.1093 39.4774C60.1093 37.7159 58.906 36.3362 57.3376 36.3362C55.8015 36.3362 54.5548 37.6811 54.5548 39.4774C54.5548 41.262 55.7905 42.6068 57.3156 42.6068C58.1 42.6068 58.7982 42.1777 59.228 41.5288V42.4559H60.1092L60.1093 39.4774ZM59.2069 39.4774C59.2069 40.7056 58.358 41.6911 57.3376 41.6911C56.3062 41.6911 55.4683 40.7292 55.4683 39.4774C55.4683 38.2256 56.3062 37.2402 57.3376 37.2402C58.347 37.2403 59.2069 38.2375 59.2069 39.4774ZM68.9827 38.6311C68.9827 37.3333 68.1234 36.3362 66.8666 36.3362C66.1144 36.3362 65.5342 36.7187 65.201 37.3216C64.8786 36.7187 64.2986 36.3362 63.5469 36.3362C62.3009 36.3362 61.4307 37.3333 61.4307 38.6311V42.456H62.3435V38.5963C62.3435 37.8201 62.8166 37.2403 63.5469 37.2403C64.2772 37.2403 64.7498 37.8203 64.7498 38.5963V42.456H65.6632V38.5963C65.6632 37.8201 66.1356 37.2403 66.8666 37.2403C67.5969 37.2403 68.0695 37.8203 68.0695 38.5963V42.456H68.9829L68.9827 38.6311ZM71.3136 41.262H70.2391V42.456H71.3136V41.262ZM76.5664 36.8231C76.5664 35.8731 77.0286 35.3515 77.8877 35.3515H80.5305V34.4127H77.8877C76.5341 34.4127 75.653 35.2932 75.653 36.8231V40.045C75.653 41.5638 76.5341 42.456 77.8877 42.456H80.5305V41.5054H77.8877C77.0284 41.5054 76.5664 40.9838 76.5664 40.045V38.8864H80.0576V37.9705H76.5664V36.8231ZM85.2252 39.4657C85.8163 39.0721 86.1709 38.3877 86.1709 37.4489V36.4872H85.2684V37.5304C85.2684 38.3879 84.7954 39.0139 83.9361 39.0139C83.0768 39.0139 82.6043 38.3879 82.6043 37.5304V36.4872H81.7019V37.4489C81.7019 38.3877 82.0564 39.0721 82.647 39.4657C82.0565 39.86 81.7019 40.5554 81.7019 41.4825V42.456H82.6043V41.4129C82.6043 40.5554 83.0769 39.9296 83.9361 39.9296C84.7954 39.9296 85.2684 40.5555 85.2684 41.4129V42.456H86.1709V41.4825C86.1709 40.5554 85.8163 39.86 85.2252 39.4657ZM92.9706 39.4774C92.9706 37.6811 91.7246 36.3362 90.1988 36.3362C88.6305 36.3362 87.4167 37.7159 87.4167 39.4774V45.1103H88.2973V41.5984C88.7485 42.2006 89.4471 42.6068 90.2097 42.6068C91.7458 42.6069 92.9706 41.262 92.9706 39.4774ZM92.0571 39.4774C92.0571 40.7292 91.2192 41.7028 90.1988 41.7028C89.1784 41.7028 88.3295 40.7173 88.3295 39.4774C88.3295 38.2375 89.1893 37.252 90.1988 37.252C91.2192 37.252 92.0571 38.2258 92.0571 39.4774ZM94.002 40.2772C94.002 41.7953 94.8935 42.618 96.193 42.456V41.529C95.5058 41.5638 94.9044 41.2968 94.9044 40.2424V33.8328H94.002V40.2772ZM99.4056 36.3362C97.8372 36.3362 96.6228 37.7505 96.6228 39.4891C96.6228 41.2041 97.8372 42.6068 99.4056 42.6068C100.985 42.6068 102.188 41.2041 102.188 39.4891C102.188 37.7507 100.985 36.3362 99.4056 36.3362ZM99.4056 41.6563C98.3852 41.6563 97.5471 40.6827 97.5471 39.4893C97.5471 38.2723 98.385 37.2751 99.4056 37.2751C100.437 37.2751 101.275 38.2723 101.275 39.4893C101.275 40.6827 100.437 41.6563 99.4056 41.6563ZM103.283 38.9093V42.456H104.186V38.8864C104.186 37.739 104.863 37.1826 105.926 37.287V36.3711C104.476 36.1859 103.283 37.1011 103.283 38.9093ZM111.007 40.6014C110.653 41.2968 110.105 41.6681 109.321 41.6681C108.687 41.6681 108.075 41.3316 107.72 40.7294L111.963 38.7939C111.641 37.2403 110.47 36.3363 109.267 36.3363C107.731 36.3363 106.484 37.7507 106.484 39.4776C106.484 41.2273 107.731 42.5952 109.321 42.5952C110.599 42.5952 111.523 41.8767 111.953 40.6015H111.007V40.6014ZM107.398 39.4657C107.398 38.0983 108.386 37.2639 109.267 37.2639C109.89 37.2639 110.502 37.6694 110.846 38.3183L107.43 39.8712C107.409 39.7439 107.398 39.6166 107.398 39.4657ZM113.962 41.262H112.887V42.456H113.962V41.262ZM118.473 42.456H120.815C122.878 42.456 124.188 40.9144 124.188 38.4225C124.188 35.9307 122.878 34.4126 120.815 34.4126H118.473V42.456ZM120.815 35.3515C122.169 35.3515 123.254 36.2209 123.254 38.4227C123.254 40.5785 122.19 41.5055 120.815 41.5055H119.376V35.3515H120.815ZM126.315 35.5831V34.841C126.315 34.5747 126.111 34.3659 125.853 34.3659C125.606 34.3659 125.402 34.5745 125.402 34.841V35.5831H126.315ZM126.315 36.4872H125.402V42.456H126.315V36.4872ZM131.171 36.4872C130.451 36.4407 129.85 36.6493 129.431 37.0784C128.937 37.5881 128.743 38.2837 128.743 39.4659C128.743 40.4972 128.571 40.8797 128.335 41.1231C128.099 41.3665 127.701 41.5055 127.218 41.4826V42.4562C127.905 42.5027 128.528 42.2822 128.958 41.8421C129.452 41.3317 129.646 40.648 129.646 39.4659C129.646 38.4346 129.817 38.052 130.064 37.7857C130.354 37.4958 130.741 37.4379 131.171 37.4491V36.4872ZM136.95 40.6014H135.973C135.672 41.2509 135.102 41.6563 134.372 41.6563C133.352 41.6563 132.514 40.6827 132.514 39.4774C132.514 38.2723 133.352 37.275 134.372 37.275C135.092 37.275 135.661 37.6809 135.973 38.3298H136.95C136.575 37.1247 135.608 36.336 134.372 36.336C132.847 36.336 131.6 37.7504 131.6 39.4772C131.6 41.2041 132.847 42.5949 134.372 42.5949C135.608 42.5951 136.585 41.8072 136.95 40.6014ZM140.431 36.3362C138.863 36.3362 137.649 37.7505 137.649 39.4891C137.649 41.2041 138.863 42.6068 140.431 42.6068C142.01 42.6068 143.213 41.2041 143.213 39.4891C143.213 37.7507 142.01 36.3362 140.431 36.3362ZM140.431 41.6563C139.411 41.6563 138.573 40.6827 138.573 39.4893C138.573 38.2723 139.411 37.2751 140.431 37.2751C141.463 37.2751 142.3 38.2723 142.3 39.4893C142.3 40.6827 141.463 41.6563 140.431 41.6563ZM145.663 42.456H146.64L148.649 36.4872H147.682L146.157 41.1466H146.146L144.621 36.4872H143.654L145.663 42.456ZM153.602 40.6014C153.248 41.2968 152.7 41.6681 151.915 41.6681C151.282 41.6681 150.669 41.3316 150.315 40.7294L154.558 38.7939C154.236 37.2403 153.065 36.3363 151.862 36.3363C150.326 36.3363 149.079 37.7507 149.079 39.4776C149.079 41.2273 150.326 42.5952 151.915 42.5952C153.193 42.5952 154.118 41.8767 154.547 40.6015H153.602V40.6014ZM149.992 39.4657C149.992 38.0983 150.981 37.2639 151.862 37.2639C152.484 37.2639 153.097 37.6694 153.441 38.3183L150.025 39.8712C150.003 39.7439 149.992 39.6166 149.992 39.4657ZM155.654 38.9093V42.456H156.556V38.8864C156.556 37.739 157.233 37.1826 158.296 37.287V36.3711C156.846 36.1859 155.654 37.1011 155.654 38.9093Z" fill="#808080"/>
<path fill-rule="evenodd" clip-rule="evenodd" d="M22.8625 0.646354L22.2254 0.299625C20.9939 -0.370602 19.4564 0.121867 18.8078 1.39505L15.7095 7.47595L15.7557 7.50014L16.6415 7.98227L19.7394 1.90208C20.118 1.15892 21.0158 0.871166 21.7349 1.26254L22.3719 1.60927L22.8625 0.646354Z" fill="#808080"/>
<path fill-rule="evenodd" clip-rule="evenodd" d="M3.87272 35.7597L3.26465 36.9532C3.0589 37.357 2.57181 37.5128 2.18149 37.3004L1.76183 37.072C1.37151 36.8596 1.22025 36.3561 1.42589 35.9525L2.03396 34.759L3.87272 35.7597Z" fill="#808080"/>
<path fill-rule="evenodd" clip-rule="evenodd" d="M31.0117 5.08099L31.6487 5.42772C32.8803 6.09807 33.3572 7.68692 32.7086 8.95998L29.6104 15.041L29.565 15.0154L28.6792 14.5333L31.7771 8.45307C32.1557 7.70991 31.8773 6.78201 31.1583 6.39076L30.5212 6.04403L31.0117 5.08099Z" fill="#808080"/>
<path fill-rule="evenodd" clip-rule="evenodd" d="M30.5882 4.57263L27.0479 2.64583L23.5077 0.719037C23.419 0.670777 23.3083 0.706157 23.2616 0.797983L22.6586 1.98162C22.6119 2.07333 22.6461 2.18754 22.7349 2.23592L26.2751 4.16272L29.8153 6.08952C29.9041 6.13778 30.0147 6.1024 30.0614 6.01069L30.6644 4.82705C30.7113 4.7351 30.6769 4.62089 30.5882 4.57263Z" fill="#808080"/>
<path fill-rule="evenodd" clip-rule="evenodd" d="M13.7425 41.1318L13.1344 42.3253C12.9288 42.729 13.0799 43.2323 13.4703 43.4448L13.89 43.6733C14.2803 43.8857 14.7674 43.7298 14.9732 43.3261L15.5812 42.1325L13.7425 41.1318Z" fill="#808080"/>
<path fill-rule="evenodd" clip-rule="evenodd" d="M15.1307 7.46612C13.6761 6.6728 11.8862 7.22592 11.1328 8.70157L0.332951 29.8539C-0.420472 31.3296 0.147929 33.1689 1.60251 33.9622L16.6158 42.1505C18.0703 42.9438 19.8603 42.3907 20.6137 40.915L31.4135 19.7627C32.1669 18.287 31.5985 16.4477 30.144 15.6543L15.1307 7.46612ZM16.8021 26.4836L14.2794 30.1081L15.4519 32.2807L14.4862 33.8384L12.968 32.1505C12.875 32.2953 12.7534 32.4827 12.6011 32.7129L10.9212 31.5885C10.9844 31.4935 11.0406 31.4075 11.0927 31.3278L11.1131 31.2967L9.35672 30.9816L10.1644 29.3358L12.6225 29.1855L14.3559 25.1217L6.0343 23.3685L6.65487 22.2473L16.0571 21.3018L17.4219 19.2901C18.0023 18.4347 18.7452 17.7032 19.6072 17.1394L20.81 16.3525L20.78 17.7924C20.7587 18.8245 20.5326 19.8438 20.1155 20.7903L19.1348 23.0157L23.306 31.5204L22.6854 32.6417L16.8021 26.4836Z" fill="#3B9AA4"/>
<path d="M42.527 12.0818H39.1331L38.0515 7.9316H49.9985L51.0427 12.0818H46.8532V26.164H42.527V12.0818Z" fill="#808080"/>
<path d="M57.6545 12.5572V16.4375C57.4473 16.2919 57.1779 16.2105 56.8464 16.1934H56.6226C55.6115 16.2362 55.1059 16.9643 55.1059 18.3777V26.164H51.1278V18.3777C51.1278 14.6344 52.9594 12.6685 56.6226 12.4801H56.8464C57.1199 12.4886 57.3892 12.5143 57.6545 12.5572Z" fill="#808080"/>
<path d="M64.4402 13.0197V26.1897H60.4745V13.0326L64.4402 13.0197ZM64.4527 9.29357C64.4527 9.70473 64.3615 10.0688 64.1792 10.3857C63.9968 10.7027 63.7482 10.9596 63.4332 11.1566C63.1183 11.3537 62.7702 11.4522 62.389 11.4522C62.0077 11.4522 61.6638 11.3579 61.3571 11.1695C61.0422 10.9725 60.7936 10.7112 60.6112 10.3857C60.4206 10.0431 60.3253 9.67904 60.3253 9.29357C60.3253 8.89954 60.4165 8.53978 60.5988 8.21428C60.7977 7.88021 61.0505 7.61895 61.3571 7.4305C61.6638 7.24205 62.0077 7.14783 62.389 7.14783C62.7702 7.14783 63.1183 7.24205 63.4332 7.4305C63.7399 7.61895 63.9885 7.88021 64.1792 8.21428C64.3615 8.53978 64.4527 8.89954 64.4527 9.29357Z" fill="#808080"/>
<path d="M72.0713 17.1827C71.4083 17.8423 71.0768 18.6304 71.0768 19.5469C71.0768 20.1551 71.2301 20.7033 71.5368 21.1915C71.8434 21.6969 72.2537 22.0995 72.7675 22.3993C73.2731 22.6991 73.8159 22.849 74.3961 22.849C74.9762 22.849 75.5232 22.6991 76.0371 22.3993C76.5509 22.0995 76.9612 21.6969 77.2678 21.1915C77.5745 20.6947 77.7278 20.1465 77.7278 19.5469C77.7278 18.6389 77.3963 17.8509 76.7333 17.1827C76.0785 16.5232 75.2995 16.1934 74.3961 16.1934C73.501 16.1934 72.7261 16.5232 72.0713 17.1827ZM67.1111 31.2136V19.457C67.1194 18.1464 67.455 16.9686 68.118 15.9235C68.7811 14.8528 69.6762 14.0134 70.8033 13.4052C71.9305 12.7884 73.128 12.4801 74.3961 12.4801C75.3658 12.4801 76.2857 12.6557 77.1559 13.0069C78.0179 13.3324 78.8011 13.8249 79.5056 14.4845C80.2017 15.1441 80.7404 15.8978 81.1217 16.7459C81.5029 17.5939 81.6936 18.5276 81.6936 19.5469C81.6936 20.5405 81.4988 21.4699 81.1093 22.3351C80.728 23.1917 80.1934 23.9412 79.5056 24.5836C78.8177 25.2346 78.0345 25.7272 77.1559 26.0612C76.2691 26.3953 75.3492 26.5623 74.3961 26.5623C73.4596 26.5623 72.5438 26.3953 71.6487 26.0612L71.0768 25.8043V31.2264L67.1111 31.2136Z" fill="#808080"/>
<path d="M89.3247 17.1827C88.6617 17.8423 88.3301 18.6304 88.3301 19.5469C88.3301 20.1551 88.4835 20.7033 88.7901 21.1915C89.0968 21.6969 89.507 22.0995 90.0209 22.3993C90.5264 22.6991 91.0693 22.849 91.6494 22.849C92.2296 22.849 92.7766 22.6991 93.2904 22.3993C93.8043 22.0995 94.2145 21.6969 94.5212 21.1915C94.8278 20.6947 94.9811 20.1465 94.9811 19.5469C94.9811 18.6389 94.6496 17.8509 93.9866 17.1827C93.3319 16.5232 92.5528 16.1934 91.6494 16.1934C90.7543 16.1934 89.9794 16.5232 89.3247 17.1827ZM84.3644 31.2136V19.457C84.3727 18.1464 84.7083 16.9686 85.3714 15.9235C86.0344 14.8528 86.9295 14.0134 88.0566 13.4052C89.1838 12.7884 90.3814 12.4801 91.6494 12.4801C92.6191 12.4801 93.5391 12.6557 94.4093 13.0069C95.2712 13.3324 96.0544 13.8249 96.7589 14.4845C97.4551 15.1441 97.9938 15.8978 98.375 16.7459C98.7563 17.5939 98.9469 18.5276 98.9469 19.5469C98.9469 20.5405 98.7521 21.4699 98.3626 22.3351C97.9813 23.1917 97.4468 23.9412 96.7589 24.5836C96.071 25.2346 95.2878 25.7272 94.4093 26.0612C93.5225 26.3953 92.6025 26.5623 91.6494 26.5623C90.7129 26.5623 89.7971 26.3953 88.902 26.0612L88.3301 25.8043V31.2264L84.3644 31.2136Z" fill="#808080"/>
</svg>
